<?xml version="1.0" encoding="UTF-8" standalone="no"?>
<!-- Created with Inkscape (http://www.inkscape.org/) -->

<svg
   width="37.020996mm"
   height="7.2248902mm"
   viewBox="0 0 37.020996 7.2248902"
   version="1.1"
   id="svg1"
   inkscape:version="1.3.2 (091e20e, 2023-11-25)"
   sodipodi:docname="multibase.svg"
   inkscape:export-filename="multibase.png"
   inkscape:export-xdpi="300"
   inkscape:export-ydpi="300"
   xmlns:inkscape="http://www.inkscape.org/namespaces/inkscape"
   xmlns:sodipodi="http://sodipodi.sourceforge.net/DTD/sodipodi-0.dtd"
   xmlns:xlink="http://www.w3.org/1999/xlink"
   xmlns="http://www.w3.org/2000/svg"
   xmlns:svg="http://www.w3.org/2000/svg">
  <sodipodi:namedview
     id="namedview1"
     pagecolor="#ffffff"
     bordercolor="#000000"
     borderopacity="0.25"
     inkscape:showpageshadow="2"
     inkscape:pageopacity="0.0"
     inkscape:pagecheckerboard="0"
     inkscape:deskcolor="#d1d1d1"
     inkscape:document-units="mm"
     showguides="true"
     inkscape:zoom="3.3449229"
     inkscape:cx="58.895229"
     inkscape:cy="81.765711"
     inkscape:window-width="1392"
     inkscape:window-height="1212"
     inkscape:window-x="0"
     inkscape:window-y="25"
     inkscape:window-maximized="0"
     inkscape:current-layer="layer1">
    <sodipodi:guide
       position="21.121837,293.3874"
       orientation="0,-1"
       id="guide2"
       inkscape:locked="false" />
    <sodipodi:guide
       position="17.429946,295.46475"
       orientation="1,0"
       id="guide6"
       inkscape:locked="false" />
    <sodipodi:guide
       position="1.827512e-06,294.83243"
       orientation="1,0"
       id="guide7"
       inkscape:locked="false" />
    <sodipodi:guide
       position="15.172203,296.81914"
       orientation="1,0"
       id="guide8"
       inkscape:locked="false" />
    <sodipodi:guide
       position="10.118248,296.99971"
       orientation="0,-1"
       id="guide9"
       inkscape:locked="false" />
  </sodipodi:namedview>
  <defs
     id="defs1">
    <linearGradient
       id="linearGradient9"
       inkscape:collect="always">
      <stop
         style="stop-color:#ff0000;stop-opacity:1;"
         offset="0"
         id="stop9" />
      <stop
         style="stop-color:#00ffd7;stop-opacity:1;"
         offset="0.21186441"
         id="stop11" />
      <stop
         style="stop-color:#ff00fb;stop-opacity:1;"
         offset="0.37500003"
         id="stop12" />
      <stop
         style="stop-color:#0059ff;stop-opacity:1;"
         offset="0.55508471"
         id="stop13" />
      <stop
         style="stop-color:#fff518;stop-opacity:1;"
         offset="0.83580506"
         id="stop14" />
      <stop
         style="stop-color:#1bff00;stop-opacity:1;"
         offset="1"
         id="stop10" />
    </linearGradient>
    <linearGradient
       inkscape:collect="always"
       xlink:href="#linearGradient9"
       id="linearGradient10"
       x1="65.738106"
       y1="113.10447"
       x2="102.7591"
       y2="113.10447"
       gradientUnits="userSpaceOnUse" />
  </defs>
  <g
     inkscape:label="Layer 1"
     inkscape:groupmode="layer"
     id="layer1"
     transform="translate(-65.738102,-109.49202)">
    <path
       id="path14"
       style="font-size:5.64444px;font-family:Rahovets;-inkscape-font-specification:Rahovets;fill:url(#linearGradient10);stroke-width:0.079375;stroke-linejoin:bevel;stroke:#000000;stroke-opacity:1;stroke-dasharray:none"
       d="m 83.348398,113.10472 c -0.101599,0 -0.18035,0.0793 -0.18035,0.18087 0,0.1016 0.07873,0.18035 0.18035,0.18035 h 1.483114 0.413411 c 0.1016,0 0.180868,0.0787 0.180868,0.18035 v 0.72244 1.80661 c 0,0.29915 0.242926,0.54157 0.542086,0.54157 l 5.17e-4,-0.004 c 0.01282,9.1e-4 0.02519,0.004 0.03824,0.004 h 3.070614 c 0.299154,0 0.541569,-0.24241 0.541569,-0.54157 v -1.80661 c 0,-0.29916 -0.242415,-0.54157 -0.541569,-0.54157 h -1.535307 c -0.1016,0 -0.180868,-0.0793 -0.180868,-0.18087 v -0.18035 c 0,-0.19756 -0.163663,-0.36123 -0.361218,-0.36122 h -1.754932 -0.206705 -0.206706 z m 6.947897,0.72244 c -0.197556,0 -0.361219,0.16366 -0.361219,0.36122 v 0.18035 c 0,0.19755 0.163663,0.36173 0.361219,0.36173 h 1.715657 c 0.1016,0 0.180868,0.0787 0.180868,0.18036 0,0.1016 -0.07926,0.18086 -0.180868,0.18086 h -1.535307 c -0.299155,0 -0.541569,0.24242 -0.541569,0.54157 v 0.54209 c 0,0.29916 0.242414,0.54157 0.541569,0.54157 h 3.070614 c 0.299156,0 0.542086,-0.24241 0.542086,-0.54157 v -1.80661 c 0,-0.29916 -0.24293,-0.54157 -0.542086,-0.54157 z m 4.650879,0 c -0.299155,0 -0.541569,0.24241 -0.541569,0.54157 v 0.54209 c 0,0.29915 0.242414,0.54208 0.541569,0.54208 h 1.264522 c 0.1016,0 0.180351,0.0787 0.180351,0.18035 0,0.1016 -0.07875,0.18087 -0.180351,0.18087 h -1.444873 c -0.197556,0 -0.361218,0.16366 -0.361218,0.36122 v 0.18035 c 0,0.19756 0.163662,0.36122 0.361218,0.36122 H 97.747 c 0.29915,0 0.54157,-0.24241 0.54157,-0.54157 v -0.54209 c 0,-0.29915 -0.24242,-0.54157 -0.54157,-0.54157 h -1.26452 c -0.101599,0 -0.18035,-0.0792 -0.18035,-0.18086 0,-0.1016 0.07875,-0.18036 0.18035,-0.18036 h 1.44487 c 0.19755,0 0.36122,-0.16418 0.36122,-0.36173 v -0.18035 c 0,-0.19756 -0.16367,-0.36122 -0.36122,-0.36122 z m 4.199746,0 c -0.29916,0 -0.54209,0.24241 -0.54209,0.54157 v 1.80661 c 0,0.29916 0.24293,0.54157 0.54209,0.54157 h 3.25096 c 0.19755,0 0.36122,-0.16366 0.36122,-0.36122 v -0.18035 c 0,-0.19756 -0.16367,-0.36122 -0.36122,-0.36122 h -1.71566 c -0.1016,0 -0.18086,-0.0792 -0.18086,-0.18087 0,-0.1016 0.0792,-0.18035 0.18086,-0.18035 h 1.53531 c 0.29916,0 0.54157,-0.24293 0.54157,-0.54208 v -0.54209 c 0,-0.29916 -0.24241,-0.54157 -0.54157,-0.54157 z m -11.604979,0.36122 c 0.1016,0 0.180351,0.0787 0.180351,0.18035 v 1.80661 c 0,0.1016 -0.07875,0.18035 -0.180351,0.18035 -0.1016,0 -0.180868,-0.0787 -0.180868,-0.18035 v -1.80661 c 0,-0.1016 0.07927,-0.18035 0.180868,-0.18035 z m 13.140279,0 c 0.1016,0 0.18035,0.0787 0.18035,0.18035 v 0.54209 c 0,0.1016 -0.0787,0.18086 -0.18035,0.18086 -0.1016,0 -0.18086,-0.0792 -0.18086,-0.18086 v -0.54209 c 0,-0.1016 0.0792,-0.18035 0.18086,-0.18035 z m -8.670268,1.26452 c 0.1016,0 0.180868,0.0787 0.180868,0.18035 v 0.54209 c 0,0.1016 -0.07926,0.18035 -0.180868,0.18035 -0.101599,0 -0.18035,-0.0787 -0.18035,-0.18035 v -0.54209 c 0,-0.1016 0.07875,-0.18035 0.18035,-0.18035 z m -26.093497,-5.96088 c -0.1016,0 -0.180351,0.0793 -0.180351,0.18087 0,0.1016 0.07873,0.18035 0.180351,0.18035 h 9.524485 0.413412 c 0.07286,0 0.133888,0.0409 0.16278,0.10129 0.007,0.0262 0.01447,0.0523 0.01447,0.0796 v 2.52853 c 0,0.16928 0.07935,0.31868 0.201021,0.41806 0.02438,0.0199 0.04988,0.0378 0.07752,0.0532 0.0064,0.004 0.01305,0.007 0.01964,0.0103 0.02024,0.0103 0.04093,0.0192 0.06253,0.0269 0.01454,0.005 0.02935,0.01 0.04444,0.014 0.01603,0.004 0.032,0.008 0.04858,0.0109 0.02433,0.004 0.04909,0.006 0.07441,0.007 0.0046,1.2e-4 0.0088,0.002 0.01344,0.002 h 0.81287 c 0.299155,0 0.542086,-0.24292 0.542086,-0.54208 v -2.52853 c 0,-0.29915 -0.242931,-0.54209 -0.542086,-0.54209 H 75.856352 75.44294 Z m 13.095327,0 c -0.299156,0 -0.542086,0.24294 -0.542086,0.54209 0,0.1016 -0.07875,0.18035 -0.180351,0.18035 -0.1016,0 -0.180867,0.0793 -0.180867,0.18087 0,0.1016 0.07927,0.18035 0.180867,0.18035 0.1016,0 0.180351,0.0792 0.180351,0.18087 v 1.80609 c 0,0.29916 0.24293,0.54208 0.542086,0.54208 h 1.535307 c 0.101599,0 0.180867,-0.0792 0.180867,-0.18086 0,-0.1016 -0.07927,-0.18035 -0.180867,-0.18035 -0.101599,0 -0.180868,-0.0792 -0.180868,-0.18087 v -1.80609 c 0,-0.1016 0.07927,-0.18087 0.180868,-0.18087 0.101599,0 0.180867,-0.0787 0.180867,-0.18035 0,-0.1016 -0.07927,-0.18087 -0.180867,-0.18087 -0.101599,0 -0.180868,-0.0787 -0.180868,-0.18035 0,-0.29915 -0.242414,-0.54209 -0.541569,-0.54209 z m 2.077387,2.7e-4 c -0.1016,0 -0.180868,0.0793 -0.180868,0.18087 v 0 c 0,0.1016 0.07927,0.18087 0.180868,0.18087 h 0.812871 c 0.0508,0 0.08992,0.0396 0.08992,0.0904 0,0.0508 -0.03912,0.0899 -0.08992,0.0899 h -0.722954 c -0.146755,0 -0.270785,0.12454 -0.270785,0.2713 v 0.3607 c 0,0.14675 0.12403,0.2713 0.270785,0.2713 h 1.445391 c 0.1016,0 0.18035,-0.0792 0.18035,-0.18086 v 0 c 0,-0.1016 -0.07875,-0.18035 -0.18035,-0.18035 h -0.812872 c -0.0508,0 -0.09043,-0.0396 -0.09043,-0.0904 0,-0.0508 0.03963,-0.0904 0.09043,-0.0904 h 0.722438 c 0.146755,0 0.270784,-0.12404 0.270784,-0.27078 v -0.36122 c 0,-0.14675 -0.124029,-0.27131 -0.270784,-0.27131 z m -14.810981,0.72217 c -0.299155,0 -0.542086,0.24294 -0.542086,0.54209 v 1.80609 c 0,0.29916 0.242931,0.54208 0.542086,0.54208 h 0.812354 c 0.299154,0 0.542085,-0.24292 0.542085,-0.54208 v -1.80609 c 0,-0.1016 0.07875,-0.18087 0.180351,-0.18087 0.1016,0 0.180868,0.0792 0.180868,0.18087 v 1.98696 c 0,0.19755 0.163663,0.36121 0.361218,0.36121 h 0.180867 c 0.197556,0 0.361219,-0.16366 0.361219,-0.36121 v -1.98696 c 0,-0.1016 0.07875,-0.18087 0.18035,-0.18087 0.1016,0 0.180868,0.0792 0.180868,0.18087 v 1.80609 c 0,0.29916 0.242414,0.54208 0.541569,0.54208 h 0.81287 c 0.299156,0 0.542086,-0.24292 0.542086,-0.54208 v -1.80609 c 0,-0.29915 -0.24293,-0.54209 -0.542086,-0.54209 z m 5.779492,0 c -0.299154,0 -0.541569,0.24294 -0.541569,0.54209 v 1.80609 c 0,0.29916 0.242415,0.54208 0.541569,0.54208 h 3.070614 c 0.299156,0 0.542086,-0.24292 0.542086,-0.54208 v -1.80609 c 0,-0.29915 -0.24293,-0.54209 -0.542086,-0.54209 h -0.81287 c -0.299155,0 -0.541569,0.24294 -0.541569,0.54209 v 1.80609 c 0,0.1016 -0.07927,0.18087 -0.180868,0.18087 -0.1016,0 -0.180351,-0.0792 -0.180351,-0.18087 v -1.80609 c 0,-0.29915 -0.24293,-0.54209 -0.542085,-0.54209 z m 9.392709,1.08439 c -0.299155,0 -0.542086,0.24294 -0.542086,0.54209 v 0.7217 c 0,0.29916 0.242931,0.54208 0.542086,0.54208 h 0.812353 c 0.299156,0 0.542086,-0.24292 0.542086,-0.54208 v -0.7217 c 0,-0.29915 -0.24293,-0.54209 -0.542086,-0.54209 z" />
    <path
       id="text2"
       style="font-size:5.64444px;font-family:Rahovets;-inkscape-font-specification:Rahovets;fill:url(#linearGradient10);stroke-width:0.5;stroke-linejoin:bevel"
       d="m 83.348398,113.10472 c -0.101599,0 -0.18035,0.0793 -0.18035,0.18087 0,0.1016 0.07873,0.18035 0.18035,0.18035 h 1.483114 0.413411 c 0.1016,0 0.180868,0.0787 0.180868,0.18035 v 0.72244 1.80661 c 0,0.29915 0.242926,0.54157 0.542086,0.54157 l 5.17e-4,-0.004 c 0.01282,9.1e-4 0.02519,0.004 0.03824,0.004 h 3.070614 c 0.299154,0 0.541569,-0.24241 0.541569,-0.54157 v -1.80661 c 0,-0.29916 -0.242415,-0.54157 -0.541569,-0.54157 h -1.535307 c -0.1016,0 -0.180868,-0.0793 -0.180868,-0.18087 v -0.18035 c 0,-0.19756 -0.163663,-0.36123 -0.361218,-0.36122 h -1.754932 -0.206705 -0.206706 z m 6.947897,0.72244 c -0.197556,0 -0.361219,0.16366 -0.361219,0.36122 v 0.18035 c 0,0.19755 0.163663,0.36173 0.361219,0.36173 h 1.715657 c 0.1016,0 0.180868,0.0787 0.180868,0.18036 0,0.1016 -0.07926,0.18086 -0.180868,0.18086 h -1.535307 c -0.299155,0 -0.541569,0.24242 -0.541569,0.54157 v 0.54209 c 0,0.29916 0.242414,0.54157 0.541569,0.54157 h 3.070614 c 0.299156,0 0.542086,-0.24241 0.542086,-0.54157 v -1.80661 c 0,-0.29916 -0.24293,-0.54157 -0.542086,-0.54157 z m 4.650879,0 c -0.299155,0 -0.541569,0.24241 -0.541569,0.54157 v 0.54209 c 0,0.29915 0.242414,0.54208 0.541569,0.54208 h 1.264522 c 0.1016,0 0.180351,0.0787 0.180351,0.18035 0,0.1016 -0.07875,0.18087 -0.180351,0.18087 h -1.444873 c -0.197556,0 -0.361218,0.16366 -0.361218,0.36122 v 0.18035 c 0,0.19756 0.163662,0.36122 0.361218,0.36122 H 97.747 c 0.29915,0 0.54157,-0.24241 0.54157,-0.54157 v -0.54209 c 0,-0.29915 -0.24242,-0.54157 -0.54157,-0.54157 h -1.26452 c -0.101599,0 -0.18035,-0.0792 -0.18035,-0.18086 0,-0.1016 0.07875,-0.18036 0.18035,-0.18036 h 1.44487 c 0.19755,0 0.36122,-0.16418 0.36122,-0.36173 v -0.18035 c 0,-0.19756 -0.16367,-0.36122 -0.36122,-0.36122 z m 4.199746,0 c -0.29916,0 -0.54209,0.24241 -0.54209,0.54157 v 1.80661 c 0,0.29916 0.24293,0.54157 0.54209,0.54157 h 3.25096 c 0.19755,0 0.36122,-0.16366 0.36122,-0.36122 v -0.18035 c 0,-0.19756 -0.16367,-0.36122 -0.36122,-0.36122 h -1.71566 c -0.1016,0 -0.18086,-0.0792 -0.18086,-0.18087 0,-0.1016 0.0792,-0.18035 0.18086,-0.18035 h 1.53531 c 0.29916,0 0.54157,-0.24293 0.54157,-0.54208 v -0.54209 c 0,-0.29916 -0.24241,-0.54157 -0.54157,-0.54157 z m -11.604979,0.36122 c 0.1016,0 0.180351,0.0787 0.180351,0.18035 v 1.80661 c 0,0.1016 -0.07875,0.18035 -0.180351,0.18035 -0.1016,0 -0.180868,-0.0787 -0.180868,-0.18035 v -1.80661 c 0,-0.1016 0.07927,-0.18035 0.180868,-0.18035 z m 13.140279,0 c 0.1016,0 0.18035,0.0787 0.18035,0.18035 v 0.54209 c 0,0.1016 -0.0787,0.18086 -0.18035,0.18086 -0.1016,0 -0.18086,-0.0792 -0.18086,-0.18086 v -0.54209 c 0,-0.1016 0.0792,-0.18035 0.18086,-0.18035 z m -8.670268,1.26452 c 0.1016,0 0.180868,0.0787 0.180868,0.18035 v 0.54209 c 0,0.1016 -0.07926,0.18035 -0.180868,0.18035 -0.101599,0 -0.18035,-0.0787 -0.18035,-0.18035 v -0.54209 c 0,-0.1016 0.07875,-0.18035 0.18035,-0.18035 z m -26.093497,-5.96088 c -0.1016,0 -0.180351,0.0793 -0.180351,0.18087 0,0.1016 0.07873,0.18035 0.180351,0.18035 h 9.524485 0.413412 c 0.07286,0 0.133888,0.0409 0.16278,0.10129 0.007,0.0262 0.01447,0.0523 0.01447,0.0796 v 2.52853 c 0,0.16928 0.07935,0.31868 0.201021,0.41806 0.02438,0.0199 0.04988,0.0378 0.07752,0.0532 0.0064,0.004 0.01305,0.007 0.01964,0.0103 0.02024,0.0103 0.04093,0.0192 0.06253,0.0269 0.01454,0.005 0.02935,0.01 0.04444,0.014 0.01603,0.004 0.032,0.008 0.04858,0.0109 0.02433,0.004 0.04909,0.006 0.07441,0.007 0.0046,1.2e-4 0.0088,0.002 0.01344,0.002 h 0.81287 c 0.299155,0 0.542086,-0.24292 0.542086,-0.54208 v -2.52853 c 0,-0.29915 -0.242931,-0.54209 -0.542086,-0.54209 H 75.856352 75.44294 Z m 13.095327,0 c -0.299156,0 -0.542086,0.24294 -0.542086,0.54209 0,0.1016 -0.07875,0.18035 -0.180351,0.18035 -0.1016,0 -0.180867,0.0793 -0.180867,0.18087 0,0.1016 0.07927,0.18035 0.180867,0.18035 0.1016,0 0.180351,0.0792 0.180351,0.18087 v 1.80609 c 0,0.29916 0.24293,0.54208 0.542086,0.54208 h 1.535307 c 0.101599,0 0.180867,-0.0792 0.180867,-0.18086 0,-0.1016 -0.07927,-0.18035 -0.180867,-0.18035 -0.101599,0 -0.180868,-0.0792 -0.180868,-0.18087 v -1.80609 c 0,-0.1016 0.07927,-0.18087 0.180868,-0.18087 0.101599,0 0.180867,-0.0787 0.180867,-0.18035 0,-0.1016 -0.07927,-0.18087 -0.180867,-0.18087 -0.101599,0 -0.180868,-0.0787 -0.180868,-0.18035 0,-0.29915 -0.242414,-0.54209 -0.541569,-0.54209 z m 2.077387,2.7e-4 c -0.1016,0 -0.180868,0.0793 -0.180868,0.18087 v 0 c 0,0.1016 0.07927,0.18087 0.180868,0.18087 h 0.812871 c 0.0508,0 0.08992,0.0396 0.08992,0.0904 0,0.0508 -0.03912,0.0899 -0.08992,0.0899 h -0.722954 c -0.146755,0 -0.270785,0.12454 -0.270785,0.2713 v 0.3607 c 0,0.14675 0.12403,0.2713 0.270785,0.2713 h 1.445391 c 0.1016,0 0.18035,-0.0792 0.18035,-0.18086 v 0 c 0,-0.1016 -0.07875,-0.18035 -0.18035,-0.18035 h -0.812872 c -0.0508,0 -0.09043,-0.0396 -0.09043,-0.0904 0,-0.0508 0.03963,-0.0904 0.09043,-0.0904 h 0.722438 c 0.146755,0 0.270784,-0.12404 0.270784,-0.27078 v -0.36122 c 0,-0.14675 -0.124029,-0.27131 -0.270784,-0.27131 z m -14.810981,0.72217 c -0.299155,0 -0.542086,0.24294 -0.542086,0.54209 v 1.80609 c 0,0.29916 0.242931,0.54208 0.542086,0.54208 h 0.812354 c 0.299154,0 0.542085,-0.24292 0.542085,-0.54208 v -1.80609 c 0,-0.1016 0.07875,-0.18087 0.180351,-0.18087 0.1016,0 0.180868,0.0792 0.180868,0.18087 v 1.98696 c 0,0.19755 0.163663,0.36121 0.361218,0.36121 h 0.180867 c 0.197556,0 0.361219,-0.16366 0.361219,-0.36121 v -1.98696 c 0,-0.1016 0.07875,-0.18087 0.18035,-0.18087 0.1016,0 0.180868,0.0792 0.180868,0.18087 v 1.80609 c 0,0.29916 0.242414,0.54208 0.541569,0.54208 h 0.81287 c 0.299156,0 0.542086,-0.24292 0.542086,-0.54208 v -1.80609 c 0,-0.29915 -0.24293,-0.54209 -0.542086,-0.54209 z m 5.779492,0 c -0.299154,0 -0.541569,0.24294 -0.541569,0.54209 v 1.80609 c 0,0.29916 0.242415,0.54208 0.541569,0.54208 h 3.070614 c 0.299156,0 0.542086,-0.24292 0.542086,-0.54208 v -1.80609 c 0,-0.29915 -0.24293,-0.54209 -0.542086,-0.54209 h -0.81287 c -0.299155,0 -0.541569,0.24294 -0.541569,0.54209 v 1.80609 c 0,0.1016 -0.07927,0.18087 -0.180868,0.18087 -0.1016,0 -0.180351,-0.0792 -0.180351,-0.18087 v -1.80609 c 0,-0.29915 -0.24293,-0.54209 -0.542085,-0.54209 z m 9.392709,1.08439 c -0.299155,0 -0.542086,0.24294 -0.542086,0.54209 v 0.7217 c 0,0.29916 0.242931,0.54208 0.542086,0.54208 h 0.812353 c 0.299156,0 0.542086,-0.24292 0.542086,-0.54208 v -0.7217 c 0,-0.29915 -0.24293,-0.54209 -0.542086,-0.54209 z" />
  </g>
</svg>
